<svg id="Capa_1" data-name="Capa 1" xmlns="http://www.w3.org/2000/svg" viewBox="0 0 337 485"><defs><style>.cls-1{fill:#441349};.cls-1:hover{fill:green}</style></defs><path class="cls-1" d="M84.62,241.44c26.28,25.92,50.82,50.18,75.43,74.38q54,53.06,108,106.06c11.39,11.22,14.26,25.47,8.1,38.59-10.07,21.46-37.92,26.1-55.45,9q-46.12-44.94-92-90.17Q72.58,324.2,16.44,269.07c-17.5-17.17-17.6-35.88-.22-52.93Q117.64,116.6,219,17c9.36-9.21,20.09-13.91,33.25-11.12,12.79,2.7,21.6,10.41,25.37,22.8,3.93,12.87.74,24.3-9,33.83q-60.85,59.79-121.77,119.54-28,27.43-56,54.84C89.23,238.61,87,239.77,84.62,241.44Z"/><path class="cls-1" d="M325.46,367.28c10,9.86,10.93,22.87,2.53,32.55-9.34,10.75-25,11-36.05.23q-34.21-33.37-68.24-66.95-36.48-35.81-72.95-71.62c-12.78-12.57-12.79-25.37-.13-37.8Q220.75,154.86,290.86,86c5.64-5.55,11.87-9.38,20-8.93,9.78.55,17,5.31,20.79,14.21,4,9.44,2.14,18.21-5.17,25.45-20.58,20.41-41.33,40.65-62,61-21.76,21.4-43.51,42.82-66.21,65.17"/></svg>