<svg id="Capa_1" data-name="Capa 1" xmlns="http://www.w3.org/2000/svg" viewBox="0 0 337 485"><defs><style>.cls-1{fill:#dedede;}</style></defs><path class="cls-1" d="M252.38,243.56c-26.28-25.92-50.82-50.18-75.43-74.38q-54-53.06-108-106.06C57.54,51.9,54.67,37.65,60.83,24.53c10.07-21.46,37.92-26.1,55.45-9q46.13,44.94,92,90.17,56.16,55.11,112.3,110.24c17.5,17.17,17.6,35.88.22,52.93Q219.37,368.4,118,468c-9.36,9.21-20.09,13.91-33.25,11.12-12.79-2.7-21.6-10.41-25.37-22.8-3.93-12.87-.74-24.3,9-33.83q60.86-59.79,121.77-119.54,28-27.43,56-54.84C247.77,246.39,250,245.23,252.38,243.56Z"/><path class="cls-1" d="M11.54,117.72C1.52,107.86.61,94.85,9,85.17c9.34-10.75,25-11,36.05-.23q34.22,33.38,68.24,66.95,36.48,35.81,73,71.62c12.78,12.57,12.79,25.37.13,37.8Q116.26,330.15,46.14,399c-5.64,5.55-11.87,9.38-20,8.93-9.78-.55-17-5.31-20.79-14.21-4-9.44-2.14-18.21,5.17-25.45,20.58-20.41,41.33-40.65,62-61,21.76-21.4,43.51-42.82,66.21-65.17"/></svg>