<?xml version="1.0" encoding="UTF-8" standalone="no"?>
<!-- Created with Inkscape (http://www.inkscape.org/) -->

<svg
   xmlns:dc="http://purl.org/dc/elements/1.1/"
   xmlns:cc="http://creativecommons.org/ns#"
   xmlns:rdf="http://www.w3.org/1999/02/22-rdf-syntax-ns#"
   xmlns:svg="http://www.w3.org/2000/svg"
   xmlns="http://www.w3.org/2000/svg"
   xmlns:sodipodi="http://sodipodi.sourceforge.net/DTD/sodipodi-0.dtd"
   xmlns:inkscape="http://www.inkscape.org/namespaces/inkscape"
   version="1.1"
   id="svg2128"
   width="348"
   height="141"
   viewBox="0 0 348 141"
   sodipodi:docname="Koe_no_Katachi_logo.svg"
   inkscape:version="0.92.4 5da689c313, 2019-01-14">
  <metadata
     id="metadata2134">
    <rdf:RDF>
      <cc:Work
         rdf:about="">
        <dc:format>image/svg+xml</dc:format>
        <dc:type
           rdf:resource="http://purl.org/dc/dcmitype/StillImage" />
      </cc:Work>
    </rdf:RDF>
  </metadata>
  <defs
     id="defs2132" />
  <sodipodi:namedview
     pagecolor="#ffffff"
     bordercolor="#666666"
     borderopacity="1"
     objecttolerance="10"
     gridtolerance="10"
     guidetolerance="10"
     inkscape:pageopacity="0"
     inkscape:pageshadow="2"
     inkscape:window-width="1920"
     inkscape:window-height="1016"
     id="namedview2130"
     showgrid="false"
     showguides="false"
     inkscape:zoom="1.908046"
     inkscape:cx="223.48722"
     inkscape:cy="15.749227"
     inkscape:window-x="0"
     inkscape:window-y="27"
     inkscape:window-maximized="1"
     inkscape:current-layer="svg2128" />
  <path
     style="fill:#ff0000"
     d="m 151.8815,133.50073 c -0.33992,-0.55 -1.82898,-1.01618 -3.30902,-1.03596 l -2.69098,-0.036 2.91335,-2.38185 2.91335,-2.38185 -2.91335,-0.43235 c -1.83802,-0.27277 -1.06783,-0.47538 2.08665,-0.54892 l 5,-0.11656 -2.47916,2.06258 c -2.32931,1.93792 -2.37183,2.14106 -0.70352,3.36096 0.9766,0.7141 2.76722,1.08194 3.97916,0.8174 1.77858,-0.38822 1.91425,-0.27435 0.70352,0.59046 -1.89624,1.35447 -4.69389,1.40638 -5.5,0.10206 z m 47.40146,0.30902 c -0.0542,-0.44496 -0.1667,-1.93402 -0.25,-3.30902 -0.24192,-3.99315 -3.8716,-3.85398 -5.50573,0.2111 -0.72716,1.8089 -1.53661,2.75135 -1.79877,2.09434 -0.26217,-0.65701 0.0183,-2.11951 0.62337,-3.25 0.83196,-1.55453 0.80119,-2.05544 -0.12628,-2.05544 -0.67447,0 -0.3528,-0.66069 0.71482,-1.4682 2.24562,-1.6985 3.84041,-1.98686 2.94113,-0.5318 -0.34784,0.56282 0.45395,1 1.83399,1 2.4791,0 3.66601,1.62617 3.66601,5.02277 0,1.81563 -1.9033,3.88918 -2.09854,2.28625 z m 41.49538,-0.24351 c 0,-0.55 4.05316,-1.06551 4.60316,-1.06551 0.55,0 1,-0.45 1,-1 0,-0.55 -0.91412,-1 -2.03138,-1 -1.11727,0 -1.64974,-2.547 -1.98398,-3.41802 -0.33425,-0.87103 -2.21275,-0.13316 -3.37374,-0.60227 -1.93169,-0.78053 -1.87743,-0.85832 0.6391,-0.91632 1.5125,-0.0349 2.75,-0.60339 2.75,-1.26339 0,-0.93333 -0.0609,-1.71947 0.87244,-0.78614 0.32003,0.32002 -0.12235,1.05873 0.66362,1.46487 0.83495,0.43144 2.91297,0.52127 3.72296,0.52127 1.72587,0 2.6041,0.41246 2.21584,1.04068 -0.35375,0.57237 -1.3928,0.80764 -2.30902,0.52283 -0.91621,-0.28482 -2.2711,-0.13764 -3.01086,0.32706 -0.99088,0.62245 -0.66176,1.0164 1.25,1.49623 2.77959,0.69763 3.33945,2.46877 1.39502,4.4132 -1.46021,1.46021 -6.40316,1.62142 -6.40316,0.26551 z M 124.84038,132.4342 c -1.04197,-1.68595 0.3383,-2.34669 2.0078,-0.96113 0.83325,0.69154 2.86912,1.0586 4.52416,0.8157 1.65504,-0.24291 3.00916,-0.0696 3.00916,0.38515 0,1.22472 -8.77226,1.00431 -9.54112,-0.23972 z m 52.34112,-0.13347 c 2.05975,-2.05975 1.38513,-4.71543 -1.37374,-5.40786 -2.92725,-0.7347 -7.85021,1.11288 -6.9305,2.601 0.37102,0.60032 1.56395,0.35862 3.05639,-0.61927 1.42899,-0.9363 2.44785,-1.15444 2.44785,-0.52406 0,1.28245 -3.22196,3.15019 -5.43426,3.15019 -1.84771,0 -2.08263,-3.08311 -0.36574,-4.8 1.47321,-1.47321 7.24095,-1.56956 9.86574,-0.16482 3.02441,1.61862 1.8993,6.96482 -1.46574,6.96482 -0.55556,0 -0.46667,-0.53333 0.2,-1.2 z m 45.67523,0.15992 c -0.17557,-0.28408 -0.0547,-1.5306 0.17237,-1.65028 0.31813,-0.16773 0.93393,0.89521 2.01861,1.29095 3.70174,1.35056 4.19405,1.39941 1.05947,1.39941 -1.4342,0 -2.89691,-0.46804 -3.25045,-1.04008 z m -117.24604,-1.13073 c -0.67606,-0.67606 -1.22919,-2.17818 -1.22919,-3.33806 0,-2.53456 -1.93475,-5.25247 -4,-5.61914 -0.824999,-0.14647 -6.224999,0.0509 -11.999999,0.43869 -23.368077,1.56899 -55.729484,2.73078 -59.319628,2.1296 -4.041267,-0.67672 -5.913311,-3.04597 -3.576089,-4.52589 0.767644,-0.48607 4.237801,-0.89066 7.711458,-0.89908 10.159669,-0.0246 9.972825,0.26958 10.126088,-15.94469 0.154407,-16.335244 0.684228,-15.56503 -11.209439,-16.295469 -8.37749,-0.514497 -9.294524,-0.867873 -8.387313,-3.232026 0.523593,-1.364462 6.841154,-1.543128 54.564521,-1.543128 55.037861,0 58.246801,0.218817 53.552051,3.651704 -1.16818,0.854192 -4.66072,1.348296 -9.53033,1.348296 -10.04692,0 -10.34891,0.384155 -10.72293,13.640453 -0.40369,14.30768 -0.15174,14.66426 10.04387,14.21506 5.6311,-0.2481 8.19091,0.005 8.47257,0.83713 0.24432,0.72199 -1.10161,1.44948 -3.41062,1.84346 -2.09781,0.35796 -6.06421,1.17127 -8.81421,1.80736 -4.73816,1.09597 -5.04438,1.36601 -5.84746,5.15654 -1.4627,6.90392 -3.67185,9.08069 -6.42335,6.32919 z m -13.813723,-13.7927 c 12.573593,-0.97462 12.584533,-0.98767 12.584533,-15.00511 0,-16.06769 1.82597,-15.031383 -26.485274,-15.031383 -20.089412,0 -23.596546,0.224678 -24.971627,1.599759 -1.334866,1.334866 -1.553672,3.772592 -1.321428,14.722094 0.273078,12.87471 0.325496,13.14582 2.777758,14.36681 2.558787,1.27403 15.469233,1.049 37.416038,-0.65217 z m -18.797023,-7.58843 c -0.341496,-0.88992 -0.173849,-1.29132 0.393011,-0.94098 0.5437,0.33602 0.988546,0.21828 0.988546,-0.26165 0,-0.47993 4.1625,-2.05465 9.25,-3.49938 19.467929,-5.528426 24.736909,-2.6257 5.913924,3.25803 -10.755932,3.36212 -15.645667,3.78886 -16.545481,1.44398 z m -16.618443,-7.19678 c 0,-1.94296 2.99769,-3.448372 12.618347,-6.336824 9.917003,-2.977425 15.381653,-3.670076 15.381653,-1.949643 0,1.317807 -2.984416,2.808908 -11.246164,5.618907 -8.194542,2.78715 -16.753836,4.14996 -16.753836,2.66756 z m 160.348349,25.32612 c -0.0325,-0.92129 0.33671,-1.85736 0.514,-2.46233 -2e-4,-1.74431 1.49149,-2.2668 2.75854,-2.87775 0.8291,0.32449 -1.30242,1.20048 -1.7436,2.19207 -0.0948,0.21302 0.8602,0.13382 1.35451,0.4456 0.32694,0.20621 0.296,0.84405 0.1869,0.91665 -0.2397,0.15949 -1.78701,-0.36884 -1.89171,-0.0152 -0.15107,0.51021 0.26017,2.42918 0.0504,2.99765 -0.9948,2.69626 -1.11367,2.07636 -1.22907,-1.19669 z m 8.15165,0.4226 c -1.77225,-0.76156 -1.68684,-0.86743 0.75,-0.92971 1.5125,-0.0387 2.75,0.37971 2.75,0.92971 0,0.3515 0.71857,0.87567 0.54863,1.01664 -0.39752,0.32974 -2.13524,-0.19443 -4.04863,-1.01664 z m -93.1164,-0.81166 c 0.41985,-0.67934 -0.90086,-1.21154 -3.61081,-1.45502 -4.04629,-0.36355 -3.99007,-0.39317 1.06054,-0.55861 3.73372,-0.12231 5.21462,0.18145 4.9375,1.01279 -0.21771,0.65313 -0.99284,1.3865 -1.72253,1.62973 -0.75488,0.25163 -1.04137,-0.0194 -0.6647,-0.62889 z m 125.22339,-1.77013 c -0.33385,-0.86998 -0.61362,-14.03248 -0.62173,-29.25 -0.0108,-20.276971 -0.35218,-28.336059 -1.27791,-30.168213 -1.24068,-2.455491 -1.50086,-2.504981 -14.61511,-2.779931 -17.56429,-0.36824 -17.08709,-0.70162 -20.59636,14.389021 -4.79895,20.636576 -10.09347,33.717503 -15.92173,39.337083 -1.96578,1.89539 -3.64078,3.02039 -3.72221,2.5 -0.47791,-3.05406 -0.2167,-5.08987 0.79036,-6.1599 2.90713,-3.08892 11.28177,-30.455995 12.81912,-41.890988 0.82124,-6.108478 -0.78801,-8.395286 -5.90785,-8.395286 -5.97602,0 -9.55357,-1.12655 -9.55357,-3.00837 0,-2.06374 2.72333,-2.959 9.05887,-2.97797 8.29544,-0.0249 8.44113,-0.37121 8.44113,-20.06822 0,-19.31951 0.45877,-18.195 -8,-19.60939 -3.4062,-0.56955 -5,-1.31419 -5,-2.33605 0,-1.30667 4.83333,-1.5 37.5,-1.5 32.66667,0 37.5,0.19333 37.5,1.5 0,1.03097 -1.8311,1.86146 -5.85598,2.65598 -3.22078,0.63579 -6.37078,1.67079 -7,2.3 -0.7689,0.7689 -1.14402,6.71388 -1.14402,18.1305 0,18.98137 -0.0446,18.86085 7,18.91186 5.89531,0.0427 8.5,0.98303 8.5,3.06864 0,1.49853 -1.0936,1.95744 -5.98286,2.51059 -10.10105,1.14281 -9.48188,-0.86139 -9.75961,31.590771 -0.13336,15.582413 -0.47943,29.344163 -0.76905,30.581663 -0.62424,2.66726 -4.9268,3.15609 -5.88149,0.66821 z m -3.04812,-69.837604 c 1.78704,-1.30671 1.94113,-2.74196 1.94113,-18.08061 0,-20.62522 0.9156,-19.50609 -15.94113,-19.48469 -6.63238,0.008 -12.67177,0.40364 -13.42088,0.87825 -2.0653,1.30851 -3.04628,8.29159 -3.09444,22.0277 -0.0582,16.58696 -0.56137,16.07874 15.92031,16.07874 9.35011,0 13.16069,-0.37058 14.59501,-1.41939 z m -52.9199,69.095124 c -0.33992,-0.55 -0.082,-0.67573 0.743,-0.67573 0.825,0 1.77811,0.45 2.11803,1 0.33992,0.55 0.54521,1.50956 -0.27976,1.50956 -0.825,0 -2.24135,-1.28383 -2.58127,-1.83383 z m -50.13897,-0.67573 c -0.33992,-0.55 -0.16803,-1 0.38197,-1 0.55,0 1.27811,0.45 1.61803,1 0.33992,0.55 0.16803,1 -0.38197,1 -0.55,0 -1.27811,-0.45 -1.61803,-1 z m 150.5,-11.07963 c 0,-0.47796 1.32103,-1.55214 2.93563,-2.38708 1.6146,-0.83495 7.1271,-4.15777 12.25,-7.38406 13.01651,-8.197504 19.18012,-11.149233 23.28113,-11.149233 6.92923,0 3.08565,4.137706 -9.96676,10.729463 -13.88105,7.01024 -28.5,12.23762 -28.5,10.19091 z M 4.0198749,83.000727 c -0.3165822,-0.825 -0.1837485,-1.5 0.2951861,-1.5 1.0837908,0 2.4768245,-3.760841 6.068586,-16.383658 3.50316,-12.311443 5.627459,-14.204013 9.032723,-8.047393 1.561727,2.82355 1.919789,2.94169 9.763043,3.22101 l 8.141859,0.28995 1.509288,-3.61223 c 1.867476,-4.4695 5.079932,-4.45575 7.552838,0.0323 1.577655,2.86328 1.991244,3.01364 9.075544,3.29928 6.599223,0.26609 7.616675,0.0597 9.172559,-1.86078 0.9625,-1.18804 1.743109,-3.34772 1.734687,-4.79929 -0.03284,-5.65966 0.248629,-5.59772 -27.89703,-6.13921 -18.888764,-0.36339 -26.330556,-0.84151 -27.238461,-1.75 -2.9048476,-2.90672 0.89127,-3.27935 30.715969,-3.01516 l 29.934835,0.26516 0.282751,11.25 0.282751,11.250001 H 46.485681 c -28.764184,0 -27.727898,-0.229669 -30.663333,6.795815 -0.826499,1.978092 -2.724739,5.195754 -4.218311,7.150358 -1.493571,1.954605 -2.6046479,3.891327 -2.4690597,4.303827 0.480861,1.462924 -4.5489257,0.725433 -5.1151024,-0.75 z M 179.3815,83.871928 c 0,-0.34584 1.61873,-2.420536 3.59717,-4.610436 4.54632,-5.032234 6.40283,-9.4622 6.40283,-15.278306 0,-11.2024 -9.08126,-18.156 -22.58814,-17.29595 -7.07723,0.45065 -10.40601,2.28484 -14.16186,7.80332 -2.59046,3.80618 -3.02045,10.574262 -0.85955,13.529469 1.8066,2.470668 4.13784,1.45127 12.39408,-5.419649 3.37032,-2.8048 6.59757,-5.09965 7.17166,-5.09965 2.37982,0 0.74636,3.09215 -3.70619,7.01583 -6.36639,5.610194 -12.6758,9.203956 -15.46448,8.808377 -5.83358,-0.827506 -7.66886,-14.966187 -2.82559,-21.767937 1.38462,-1.94452 4.60711,-4.34214 7.80163,-5.80465 4.76102,-2.17966 6.47453,-2.43754 13.68263,-2.05921 13.64872,0.71637 21.47734,6.81619 22.35666,17.41961 0.70588,8.51207 -0.37522,11.761098 -5.93919,17.848965 -4.38917,4.802456 -7.86166,6.971294 -7.86166,4.910217 z m -57.74949,-8.097098 -11.2495,-3.642546 -9.41291,3.184222 c -10.745763,3.635103 -10.588902,3.606442 -10.585723,1.934221 0.0013,-0.6875 2.476307,-2.542667 5.5,-4.122593 5.961803,-3.115136 6.567433,-4.349269 3.497624,-7.127407 -4.196274,-3.797571 -0.507013,-6.847791 4.900359,-4.051521 4.8808,2.52396 7.71736,1.94508 12.62198,-2.57584 4.64286,-4.27963 5.84722,-8.13311 2.89587,-9.26565 -0.86998,-0.33384 -7.30897,-0.60699 -14.30887,-0.60699 -9.699918,0 -13.188781,-0.35226 -14.668209,-1.481 -1.680151,-1.28188 -1.73946,-1.61594 -0.44113,-2.48468 1.944192,-1.30091 36.034299,-1.35197 39.434899,-0.0591 4.95242,1.8829 1.96054,9.46682 -6.78306,17.19391 -5.71099,5.047039 -4.66201,6.350955 9.16285,11.38968 6.12498,2.232364 11.44735,4.369864 11.82749,4.75 0.38013,0.380137 -1.97135,0.672404 -5.22551,0.649482 -3.98795,-0.02809 -9.58379,-1.229076 -17.16616,-3.684221 z M 88.655064,33.347296 c 1.010552,-6.56775 3.984971,-20.37248 4.707144,-21.84657 0.602469,-1.22975 3.823268,-1.5492901 17.877082,-1.7736101 l 17.14221,-0.27362 v 9.3236201 c 0,10.21129 0.67927,11.72361 5.26574,11.72361 3.92892,0 6.73426,-1.68097 6.73426,-4.03518 0,-3.14077 2.5092,-2.28054 5.364,1.83893 4.76612,6.87752 4.3324,7.19625 -9.79257,7.19625 -15.45933,0 -15.57143,-0.0788 -15.57143,-10.94898 0,-9.35379 -0.76465,-10.2873 -8.83414,-10.78508 -8.22604,-0.50743 -10.07891,0.84132 -13.357415,9.72313 -3.078071,8.33883 -5.657261,12.34142 -8.285102,12.8575 -1.47996,0.29064 -1.681616,-0.19342 -1.249779,-3 z m 207.769536,0.40343 c 0.0483,-0.84104 24.65824,-15.5223 31.82777,-18.98713 5.93909,-2.8702 10.12913,-2.99999 10.12913,-0.31376 0,3.87447 -15.97461,12.84373 -31.08264,17.45196 -8.97824,2.73853 -10.9446,3.07287 -10.87426,1.84893 z M 18.381501,31.107716 c 0,-2.06272 2.298663,-2.60699 11.010359,-2.60699 8.508888,0 10.989641,-1.21252 10.989641,-5.37143 0,-4.08658 -1.706666,-4.62857 -14.575,-4.62857 -13.645394,0 -18.4249997,-0.65319 -18.4249997,-2.51801 0,-2.10884 2.5627981,-2.48199 17.0466037,-2.48199 12.702287,0 13.97107,-0.16451 14.918212,-1.93426 0.569351,-1.06384 1.035184,-2.8113601 1.035184,-3.8833701 0,-1.96444 2.437157,-3.21446 4.75,-2.43628 0.6875,0.23132 1.25,1.47594 1.25,2.76582 0,4.7377601 2.11773,5.4880901 15.489641,5.4880901 12.975699,0 15.510359,0.4056 15.510359,2.48199 0,1.8382 -4.748868,2.51801 -17.589816,2.51801 -10.187888,0 -11.444973,0.19649 -12.375,1.93426 -3.012273,5.62848 -0.06598,8.06141 9.786245,8.08105 7.88637,0.0157 10.954609,0.92002 9.747669,2.87289 -0.473194,0.76564 -8.141139,1.1118 -24.628115,1.1118 -19.796979,0 -23.940983,-0.24112 -23.940983,-1.39301 z"
     id="path2156"
     inkscape:connector-curvature="0"
     sodipodi:nodetypes="ccccccsccccccccccccsccsscsssscccssssccccsscccscscccssscsscssscssccsscsssscssscccsssssssssccssscssssssccsscsscscsssccccccccssscccssscsssssscscscscccscccscssssssssssscsssscsscscscccsssscccssssccscsccscsssscscsscsscsssscscccsscsccscscssscsssscscssscsssssssscsssssccsss" />
</svg>
